<?xml version="1.0" encoding="UTF-8" standalone="no"?>
<svg
   xmlns:dc="http://purl.org/dc/elements/1.1/"
   xmlns:cc="http://creativecommons.org/ns#"
   xmlns:rdf="http://www.w3.org/1999/02/22-rdf-syntax-ns#"
   xmlns:svg="http://www.w3.org/2000/svg"
   xmlns="http://www.w3.org/2000/svg"
   id="svg8"
   version="1.1"
   viewBox="0 0 43 14.5"
   height="14.5mm"
   width="43mm">
  <defs
     id="defs2" />
  <metadata
     id="metadata5">
    <rdf:RDF>
      <cc:Work
         rdf:about="">
        <dc:format>image/svg+xml</dc:format>
        <dc:type
           rdf:resource="http://purl.org/dc/dcmitype/StillImage" />
        <dc:title></dc:title>
      </cc:Work>
    </rdf:RDF>
  </metadata>
  <g
     transform="translate(0,-282.5)"
     id="layer1">
    <text
       id="text3701"
       y="292.36218"
       x="13.953251"
       style="font-style:normal;font-variant:normal;font-weight:bold;font-stretch:normal;font-size:11.27651405px;line-height:1.25;font-family:Merienda;-inkscape-font-specification:'Merienda Bold';letter-spacing:0px;word-spacing:0px;fill:#000000;fill-opacity:1;stroke:none;stroke-width:0.26429328"
       xml:space="preserve"><tspan
         style="font-style:normal;font-variant:normal;font-weight:bold;font-stretch:normal;font-family:Merienda;-inkscape-font-specification:'Merienda Bold';stroke-width:0.26429328"
         y="292.36218"
         x="13.953251"
         id="tspan3699">Lyniv</tspan></text>
    <g
       transform="matrix(0.01330338,0,0,0.01330338,0.53396737,283.08334)"
       id="g3711">
      <g
         transform="matrix(0.1,0,0,-0.1,0,511)"
         id="g3709">
        <path
           d="M 4540.9,4997.6 C 2369.6,4807.8 547.5,3129.9 160.3,954.8 80.6,518.2 80.6,-301.7 156.5,-738.3 c 318.9,-1780.4 1586.8,-3245.6 3306.4,-3822.6 497.3,-167 949,-235.4 1537.4,-235.4 588.4,0 1043.9,68.3 1533.6,235.4 1715.8,573.2 2995.1,2046.1 3306.3,3811.3 79.7,447.9 79.7,1264.1 0,1708.2 C 9665.6,1938 9183.5,2860.4 8469.8,3574.1 7429.7,4614.2 6025.2,5122.9 4540.9,4997.6 Z m -64.5,-744 c 87.3,-79.7 91.1,-284.7 3.8,-360.6 -38,-30.4 -208.8,-91.1 -383.4,-136.6 C 2711.2,3395.8 1709.1,2393.6 1348.4,1008 1253.5,643.5 1196.6,560 1041,560 c -155.6,0 -254.3,98.7 -254.3,246.7 0,201.2 178.4,770.6 364.4,1154 520,1093.3 1499.4,1920.8 2672.4,2258.7 383.4,110.1 558,121.5 652.9,34.2 z m 216.4,-1195.8 c 45.6,-75.9 49.4,-129.1 19,-208.8 -30.4,-94.9 -83.5,-121.5 -432.7,-239.1 -220.2,-72.1 -478.3,-178.4 -573.2,-235.4 C 3087,2010.1 2684.7,1486.2 2483.5,787.8 2369.6,396.8 2267.1,290.5 2081.1,370.2 c -151.8,60.7 -182.2,178.4 -121.5,463.1 129.1,630.1 584.6,1328.6 1146.4,1761.4 398.6,307.5 1081.9,592.2 1381.8,573.2 117.7,-7.6 159.4,-30.4 205,-110.1 z m 763,-1021.1 c 334,-75.9 652.9,-261.9 933.9,-542.8 402.4,-406.2 584.6,-835.1 584.6,-1389.4 0,-554.3 -182.2,-987 -584.6,-1389.4 -402.4,-402.4 -835.1,-584.6 -1389.4,-584.6 -554.2,0 -987,182.2 -1389.4,584.6 -622.5,626.3 -763,1488.1 -372,2296.6 212.6,436.5 755.4,873.1 1256.5,1009.8 220.1,60.7 728.8,68.3 960.4,15.2 z M 7942.2,-168.9 c 125.3,-56.9 155.6,-186 102.5,-447.9 C 7946,-1083.7 7646.1,-1641.7 7285.5,-2028.9 6830,-2518.6 6127.7,-2902 5584.9,-2959 c -174.6,-19 -201.2,-11.4 -258.1,68.3 -148.1,216.4 -38,375.8 334,470.7 527.6,136.6 1043.9,470.7 1370.4,884.5 216.4,265.7 451.7,747.8 516.3,1043.9 34.2,151.8 75.9,243 140.5,296.1 109.9,83.6 125.1,87.4 254.2,26.6 z m 1203.3,-246.7 c 94.9,-83.5 87.3,-243 -26.6,-641.6 -337.9,-1173 -1138.8,-2137.2 -2232.1,-2672.4 -398.6,-193.6 -971.8,-379.6 -1176.8,-379.6 -155.6,0 -254.3,98.7 -254.3,246.7 0,167 83.5,223.9 440.4,315.1 1374.2,345.4 2410.5,1381.8 2755.9,2755.9 41.7,167 102.5,337.9 136.6,375.8 72.2,83.6 265.8,83.6 356.9,0.1 z"
           id="path3705" />
        <path
           d="M 4696.6,1531.8 C 4108.2,1406.5 3667.9,943.4 3557.8,339.8 3447.7,-267.6 3778,-912.9 4343.6,-1201.4 c 702.3,-353 1571.6,-79.7 1939.8,611.2 C 6754,298.1 6237.8,1361 5247,1543.2 c -261.9,49.3 -280.9,49.3 -550.4,-11.4 z M 5209,313.3 c 189.8,-186 56.9,-512.5 -208.8,-512.5 -72.1,0 -151.8,34.1 -208.8,94.9 -189.8,186 -56.9,512.5 208.8,512.5 72.2,0 151.9,-34.2 208.8,-94.9 z"
           id="path3707" />
      </g>
    </g>
    <path
       transform="matrix(0.26458333,0,0,0.26458333,0,282.5)"
       id="path3737"
       d=""
       style="fill:#ffffff;stroke:none;stroke-width:0.13810679" />
    <path
       transform="matrix(0.26458333,0,0,0.26458333,0,282.5)"
       id="path3745"
       d="m 25.603725,37.12822 c -3.055053,-0.488265 -5.849405,-2.632375 -7.30194,-5.602788 -1.373161,-2.808095 -1.348119,-5.622265 0.07643,-8.588176 0.914215,-1.903404 3.15967,-3.9178 5.366972,-4.814707 1.049411,-0.426414 2.970591,-0.672714 4.34998,-0.557677 3.840057,0.320248 7.408783,3.310758 8.592779,7.200547 0.351312,1.154164 0.350982,4.078411 -5.52e-4,5.240838 -0.970475,3.208747 -3.856437,6.061005 -6.993079,6.911408 -0.926029,0.251065 -3.127922,0.364403 -4.090548,0.210555 z m 4.126505,-2.821527 c 4.230586,-1.599934 6.051593,-6.480995 3.922986,-10.515242 -0.983849,-1.86464 -2.973784,-3.263624 -5.309914,-3.733027 -1.273342,-0.255855 -2.181153,-0.169684 -3.693318,0.350577 -2.869015,0.987087 -4.890235,3.895824 -4.897359,7.047791 -0.0068,2.991875 2.048753,5.875925 4.90075,6.87614 1.138672,0.39934 1.334394,0.425108 2.831189,0.372747 0.989448,-0.03461 1.541558,-0.132705 2.245666,-0.398986 z"
       style="fill:#a0a0a0;stroke:none;stroke-width:0.13810679" />
    <path
       transform="matrix(0.26458333,0,0,0.26458333,0,282.5)"
       id="path3747"
       d="m 26.484072,28.590001 c -0.576321,-0.357336 -0.850193,-1.036076 -0.655767,-1.625192 0.399021,-1.209044 1.818933,-1.386335 2.49144,-0.311084 0.383467,0.613115 0.277035,1.296547 -0.280136,1.798831 -0.484222,0.43652 -0.999719,0.482069 -1.555537,0.137445 z"
       style="fill:none;stroke:none;stroke-width:0.13810679" />
    <path
       transform="matrix(0.26458333,0,0,0.26458333,0,282.5)"
       id="path3749"
       d="M 29.016086,42.517269 C 28.861242,42.362425 28.694009,42.0742 28.644457,41.87677 c -0.197825,-0.788196 0.413611,-1.312526 2.089773,-1.79206 2.01195,-0.575599 4.281978,-1.906402 5.741563,-3.365987 1.508934,-1.508934 2.588517,-3.352459 3.382333,-5.775766 0.577604,-1.763268 0.657551,-1.91703 1.123732,-2.161288 0.321494,-0.168447 0.429058,-0.165904 0.817493,0.01933 0.83161,0.396567 0.907623,1.215349 0.296912,3.198258 -0.402391,1.306516 -1.108739,2.732322 -2.05282,4.143739 -2.258213,3.376064 -6.441798,6.131425 -9.960543,6.560135 -0.681865,0.08308 -0.822355,0.0586 -1.066814,-0.18586 z"
       style="fill:#ffffff;stroke:none;stroke-width:0.13810679" />
    <path
       transform="matrix(0.26458333,0,0,0.26458333,0,282.5)"
       id="path3751"
       d="m 29.905736,48.115104 c -0.286719,-0.286718 -0.356751,-0.474816 -0.323264,-0.868248 0.05948,-0.698878 0.455848,-0.949077 2.406774,-1.519238 3.580686,-1.046462 6.191685,-2.563777 8.615464,-5.006656 2.29055,-2.308602 3.675882,-4.618908 4.644387,-7.745409 0.965747,-3.117595 1.000148,-3.176456 1.856497,-3.176456 0.36909,0 0.636413,0.09385 0.836094,0.293531 0.434805,0.434806 0.300986,1.702268 -0.40069,3.795137 -2.279663,6.799473 -7.135263,11.611584 -14.048788,13.922962 -0.835546,0.279346 -1.901965,0.544461 -2.369819,0.589145 -0.789432,0.0754 -0.876981,0.05491 -1.216655,-0.284768 z"
       style="fill:#ffffff;stroke:none;stroke-width:0.13810679" />
    <path
       transform="matrix(0.26458333,0,0,0.26458333,0,282.5)"
       id="path3753"
       d="m 12.351614,25.884011 c -0.43841,-0.267291 -0.636309,-0.766699 -0.55606,-1.403239 0.364218,-2.888997 2.431157,-6.531619 5.039453,-8.881163 2.298247,-2.070253 6.87821,-4.017949 8.217751,-3.494719 0.416097,0.162529 0.678727,0.658407 0.625355,1.180746 -0.0573,0.560803 -0.301983,0.773249 -1.298361,1.127305 -3.116108,1.107287 -3.835703,1.443273 -5.057014,2.361173 -2.353715,1.768981 -3.768395,3.809902 -4.797263,6.920885 -0.476328,1.440271 -0.809568,2.124007 -1.114824,2.287375 -0.290514,0.155478 -0.70598,0.11689 -1.059037,-0.09836 z"
       style="fill:#a0a0a0;stroke:none;stroke-width:0.09765625" />
    <path
       transform="matrix(0.26458333,0,0,0.26458333,0,282.5)"
       id="path3755"
       d="M 6.4840509,24.75719 C 6.0485384,24.390731 5.9644872,23.967657 6.1416521,23.033719 6.3329335,22.025366 7.0258057,19.93707 7.5951,18.653072 10.247621,12.670518 15.489672,8.252578 21.952217,6.5530593 c 1.747675,-0.4596032 2.504401,-0.3363925 2.777012,0.4521547 0.115952,0.3353992 0.119082,0.476608 0.01804,0.8138572 -0.107113,0.3575068 -0.184968,0.4356552 -0.628576,0.6309378 -0.278476,0.1225896 -1.077609,0.3855536 -1.775851,0.5843647 -5.39633,1.5365013 -9.516598,4.8006273 -11.903712,9.4302653 -0.7951521,1.542142 -1.1188769,2.361335 -1.6239728,4.109502 -0.6064874,2.09909 -0.8295375,2.433467 -1.6232706,2.433467 -0.2978461,0 -0.4917617,-0.0686 -0.7078357,-0.250418 z"
       style="fill:#ffffff;stroke:none;stroke-width:0.09765625" />
    <path
       transform="matrix(0.26458333,0,0,0.26458333,0,282.5)"
       id="path3757"
       d="m 24.977972,36.949693 c -2.398329,-0.628669 -4.486877,-2.115427 -5.867006,-4.176496 -1.984458,-2.963568 -2.289187,-6.127122 -0.897807,-9.320625 0.477407,-1.095748 1.10676,-1.978939 2.079347,-2.918012 1.268211,-1.224512 2.490456,-2.020697 3.770245,-2.455981 1.541509,-0.524301 3.94065,-0.621927 5.438023,-0.221285 3.144743,0.841419 5.958095,3.478063 7.027377,6.585982 0.284212,0.826078 0.378227,1.80034 0.330914,3.42923 -0.03616,1.244956 -0.07978,1.630696 -0.241751,2.137772 -0.688684,2.156053 -2.27858,4.259284 -4.182319,5.532674 -1.845599,1.234501 -3.102937,1.587832 -5.614365,1.577722 -0.886488,-0.0036 -1.377972,-0.04917 -1.842658,-0.170981 z m 3.353194,-2.263735 c 0.0292,-0.0292 0.225258,-0.06393 0.435675,-0.07718 0.469817,-0.02957 1.41197,-0.394875 2.236534,-0.867177 0.843063,-0.482896 2.093333,-1.755467 2.580447,-2.626469 1.279753,-2.288314 1.317192,-5.015901 0.10094,-7.353691 -1.114775,-2.142739 -3.718976,-3.718684 -6.349503,-3.842432 -0.798981,-0.03759 -1.051027,-0.01215 -1.811961,0.182848 -1.646617,0.421971 -3.150091,1.348375 -4.070892,2.508386 -2.35699,2.969298 -2.281029,7.008067 0.182852,9.722009 0.933412,1.028145 1.942322,1.686918 3.269321,2.13472 0.740327,0.249826 0.88489,0.26857 2.084492,0.270262 0.708949,9.99e-4 1.312891,-0.02207 1.342095,-0.05128 z"
       style="opacity:1;vector-effect:none;fill:#ffffff;fill-opacity:1;stroke:none;stroke-width:0.00863167;stroke-linecap:butt;stroke-linejoin:miter;stroke-miterlimit:4;stroke-dasharray:none;stroke-dashoffset:0;stroke-opacity:1" />
    <path
       transform="matrix(0.26458333,0,0,0.26458333,0,282.5)"
       id="path3759"
       d="m 12.210453,25.645454 c -0.327762,-0.327762 -0.343155,-0.368758 -0.343155,-0.913939 0,-0.996524 0.451032,-2.45927 1.261257,-4.090401 1.384842,-2.787937 3.418147,-5.049484 5.864975,-6.523326 0.818362,-0.49294 2.640483,-1.348948 3.436176,-1.61427 0.990546,-0.330296 1.95738,-0.488587 2.39025,-0.391333 0.962548,0.216256 1.104847,1.501104 0.216711,1.956725 -0.17042,0.08743 -0.92614,0.382553 -1.679379,0.655835 -2.663239,0.966248 -4.058995,1.802081 -5.599932,3.353461 -1.409199,1.418748 -2.442527,3.181923 -3.289155,5.612306 -0.695823,1.997476 -0.894902,2.298097 -1.521854,2.298097 -0.338361,0 -0.440252,-0.04751 -0.735894,-0.343155 z"
       style="opacity:1;vector-effect:none;fill:#ffffff;fill-opacity:1;stroke:none;stroke-width:0.00863167;stroke-linecap:butt;stroke-linejoin:miter;stroke-miterlimit:4;stroke-dasharray:none;stroke-dashoffset:0;stroke-opacity:1" />
  </g>
</svg>
